<?xml version="1.0" encoding="UTF-8" standalone="no"?><svg xmlns="http://www.w3.org/2000/svg" xmlns:xlink="http://www.w3.org/1999/xlink" clip-rule="evenodd" stroke-miterlimit="4.00" viewBox="0 0 313 15"><desc>SVG generated by Keynote</desc><defs></defs><g transform="matrix(1.00, 0.00, -0.00, -1.00, 0.0, 15.0)"><text xml:space="preserve" font-family="RobotoSlab-Regular" font-size="12.0" fill="#4C4D4C" transform="matrix(1.00, 0.00, -0.00, -1.00, 1.0, 4.0)">S</text><text xml:space="preserve" font-family="RobotoSlab-Regular" font-size="12.0" fill="#4C4D4C" transform="matrix(1.00, 0.00, -0.00, -1.00, 8.3, 4.0)">h</text><text xml:space="preserve" font-family="RobotoSlab-Regular" font-size="12.0" fill="#4C4D4C" transform="matrix(1.00, 0.00, -0.00, -1.00, 16.0, 4.0)">a</text><text xml:space="preserve" font-family="RobotoSlab-Regular" font-size="12.0" fill="#4C4D4C" transform="matrix(1.00, 0.00, -0.00, -1.00, 22.7, 4.0)">d</text><text xml:space="preserve" font-family="RobotoSlab-Regular" font-size="12.0" fill="#4C4D4C" transform="matrix(1.00, 0.00, -0.00, -1.00, 29.9, 4.0)">i</text><text xml:space="preserve" font-family="RobotoSlab-Regular" font-size="12.0" fill="#4C4D4C" transform="matrix(1.00, 0.00, -0.00, -1.00, 33.8, 4.0)">n</text><text xml:space="preserve" font-family="RobotoSlab-Regular" font-size="12.0" fill="#4C4D4C" transform="matrix(1.00, 0.00, -0.00, -1.00, 41.5, 4.0)">g</text><text xml:space="preserve" font-family="RobotoSlab-Regular" font-size="12.0" fill="#4C4D4C" transform="matrix(1.00, 0.00, -0.00, -1.00, 48.2, 4.0)"> </text><text xml:space="preserve" font-family="RobotoSlab-Regular" font-size="12.0" fill="#4C4D4C" transform="matrix(1.00, 0.00, -0.00, -1.00, 51.2, 4.0)">d</text><text xml:space="preserve" font-family="RobotoSlab-Regular" font-size="12.0" fill="#4C4D4C" transform="matrix(1.00, 0.00, -0.00, -1.00, 58.4, 4.0)">e</text><text xml:space="preserve" font-family="RobotoSlab-Regular" font-size="12.0" fill="#4C4D4C" transform="matrix(1.00, 0.00, -0.00, -1.00, 64.8, 4.0)">v</text><text xml:space="preserve" font-family="RobotoSlab-Regular" font-size="12.0" fill="#4C4D4C" transform="matrix(1.00, 0.00, -0.00, -1.00, 71.5, 4.0)">i</text><text xml:space="preserve" font-family="RobotoSlab-Regular" font-size="12.0" fill="#4C4D4C" transform="matrix(1.00, 0.00, -0.00, -1.00, 75.4, 4.0)">c</text><text xml:space="preserve" font-family="RobotoSlab-Regular" font-size="12.0" fill="#4C4D4C" transform="matrix(1.00, 0.00, -0.00, -1.00, 81.9, 4.0)">e</text><text xml:space="preserve" font-family="RobotoSlab-Regular" font-size="12.0" fill="#4C4D4C" transform="matrix(1.00, 0.00, -0.00, -1.00, 88.3, 4.0)"> </text><text xml:space="preserve" font-family="RobotoSlab-Regular" font-size="12.0" fill="#4C4D4C" transform="matrix(1.00, 0.00, -0.00, -1.00, 91.3, 4.0)">-</text><text xml:space="preserve" font-family="RobotoSlab-Regular" font-size="12.0" fill="#4C4D4C" transform="matrix(1.00, 0.00, -0.00, -1.00, 96.0, 4.0)"> </text><text xml:space="preserve" font-family="RobotoSlab-Regular" font-size="12.0" fill="#4C4D4C" transform="matrix(1.00, 0.00, -0.00, -1.00, 99.0, 4.0)">L</text><text xml:space="preserve" font-family="RobotoSlab-Regular" font-size="12.0" fill="#4C4D4C" transform="matrix(1.00, 0.00, -0.00, -1.00, 106.0, 4.0)">.</text><text xml:space="preserve" font-family="RobotoSlab-Regular" font-size="12.0" fill="#4C4D4C" transform="matrix(1.00, 0.00, -0.00, -1.00, 108.9, 4.0)"> </text><text xml:space="preserve" font-family="RobotoSlab-Regular" font-size="12.0" fill="#4C4D4C" transform="matrix(1.00, 0.00, -0.00, -1.00, 111.9, 4.0)">d</text><text xml:space="preserve" font-family="RobotoSlab-Regular" font-size="12.0" fill="#4C4D4C" transform="matrix(1.00, 0.00, -0.00, -1.00, 119.1, 4.0)">u</text><text xml:space="preserve" font-family="RobotoSlab-Regular" font-size="12.0" fill="#4C4D4C" transform="matrix(1.00, 0.00, -0.00, -1.00, 126.4, 4.0)"> </text><text xml:space="preserve" font-family="RobotoSlab-Regular" font-size="12.0" fill="#4C4D4C" transform="matrix(1.00, 0.00, -0.00, -1.00, 129.3, 4.0)">P</text><text xml:space="preserve" font-family="RobotoSlab-Regular" font-size="12.0" fill="#4C4D4C" transform="matrix(1.00, 0.00, -0.00, -1.00, 136.9, 4.0)">e</text><text xml:space="preserve" font-family="RobotoSlab-Regular" font-size="12.0" fill="#4C4D4C" transform="matrix(1.00, 0.00, -0.00, -1.00, 143.3, 4.0)">l</text><text xml:space="preserve" font-family="RobotoSlab-Regular" font-size="12.0" fill="#4C4D4C" transform="matrix(1.00, 0.00, -0.00, -1.00, 147.0, 4.0)">o</text><text xml:space="preserve" font-family="RobotoSlab-Regular" font-size="12.0" fill="#4C4D4C" transform="matrix(1.00, 0.00, -0.00, -1.00, 153.7, 4.0)">u</text><text xml:space="preserve" font-family="RobotoSlab-Regular" font-size="12.0" fill="#4C4D4C" transform="matrix(1.00, 0.00, -0.00, -1.00, 161.0, 4.0)">x</text><text xml:space="preserve" font-family="RobotoSlab-Regular" font-size="12.0" fill="#4C4D4C" transform="matrix(1.00, 0.00, -0.00, -1.00, 168.0, 4.0)"> </text><text xml:space="preserve" font-family="RobotoSlab-Regular" font-size="12.0" fill="#4C4D4C" transform="matrix(1.00, 0.00, -0.00, -1.00, 171.0, 4.0)">@</text><text xml:space="preserve" font-family="RobotoSlab-Regular" font-size="12.0" fill="#4C4D4C" transform="matrix(1.00, 0.00, -0.00, -1.00, 181.7, 4.0)">P</text><text xml:space="preserve" font-family="RobotoSlab-Regular" font-size="12.0" fill="#4C4D4C" transform="matrix(1.00, 0.00, -0.00, -1.00, 189.3, 4.0)">r</text><text xml:space="preserve" font-family="RobotoSlab-Regular" font-size="12.0" fill="#4C4D4C" transform="matrix(1.00, 0.00, -0.00, -1.00, 194.2, 4.0)">i</text><text xml:space="preserve" font-family="RobotoSlab-Regular" font-size="12.0" fill="#4C4D4C" transform="matrix(1.00, 0.00, -0.00, -1.00, 198.2, 4.0)">n</text><text xml:space="preserve" font-family="RobotoSlab-Regular" font-size="12.0" fill="#4C4D4C" transform="matrix(1.00, 0.00, -0.00, -1.00, 205.8, 4.0)">c</text><text xml:space="preserve" font-family="RobotoSlab-Regular" font-size="12.0" fill="#4C4D4C" transform="matrix(1.00, 0.00, -0.00, -1.00, 212.3, 4.0)">e</text><text xml:space="preserve" font-family="RobotoSlab-Regular" font-size="12.0" fill="#4C4D4C" transform="matrix(1.00, 0.00, -0.00, -1.00, 218.7, 4.0)">t</text><text xml:space="preserve" font-family="RobotoSlab-Regular" font-size="12.0" fill="#4C4D4C" transform="matrix(1.00, 0.00, -0.00, -1.00, 223.0, 4.0)">o</text><text xml:space="preserve" font-family="RobotoSlab-Regular" font-size="12.0" fill="#4C4D4C" transform="matrix(1.00, 0.00, -0.00, -1.00, 229.8, 4.0)">n</text><text xml:space="preserve" font-family="RobotoSlab-Regular" font-size="12.0" fill="#4C4D4C" transform="matrix(1.00, 0.00, -0.00, -1.00, 237.5, 4.0)"> </text><text xml:space="preserve" font-family="RobotoSlab-Regular" font-size="12.0" fill="#4C4D4C" transform="matrix(1.00, 0.00, -0.00, -1.00, 240.5, 4.0)">-</text><text xml:space="preserve" font-family="RobotoSlab-Regular" font-size="12.0" fill="#4C4D4C" transform="matrix(1.00, 0.00, -0.00, -1.00, 245.1, 4.0)"> </text><text xml:space="preserve" font-family="RobotoSlab-Regular" font-size="12.0" fill="#4C4D4C" transform="matrix(1.00, 0.00, -0.00, -1.00, 248.1, 4.0)">1</text><text xml:space="preserve" font-family="RobotoSlab-Regular" font-size="12.0" fill="#4C4D4C" transform="matrix(1.00, 0.00, -0.00, -1.00, 253.1, 4.0)">0</text><text xml:space="preserve" font-family="RobotoSlab-Regular" font-size="12.0" fill="#4C4D4C" transform="matrix(1.00, 0.00, -0.00, -1.00, 259.9, 4.0)"> </text><text xml:space="preserve" font-family="RobotoSlab-Regular" font-size="12.0" fill="#4C4D4C" transform="matrix(1.00, 0.00, -0.00, -1.00, 262.9, 4.0)">o</text><text xml:space="preserve" font-family="RobotoSlab-Regular" font-size="12.0" fill="#4C4D4C" transform="matrix(1.00, 0.00, -0.00, -1.00, 269.6, 4.0)">c</text><text xml:space="preserve" font-family="RobotoSlab-Regular" font-size="12.0" fill="#4C4D4C" transform="matrix(1.00, 0.00, -0.00, -1.00, 276.1, 4.0)">t</text><text xml:space="preserve" font-family="RobotoSlab-Regular" font-size="12.0" fill="#4C4D4C" transform="matrix(1.00, 0.00, -0.00, -1.00, 280.5, 4.0)">.</text><text xml:space="preserve" font-family="RobotoSlab-Regular" font-size="12.0" fill="#4C4D4C" transform="matrix(1.00, 0.00, -0.00, -1.00, 283.4, 4.0)"> </text><text xml:space="preserve" font-family="RobotoSlab-Regular" font-size="12.0" fill="#4C4D4C" transform="matrix(1.00, 0.00, -0.00, -1.00, 286.3, 4.0)">2</text><text xml:space="preserve" font-family="RobotoSlab-Regular" font-size="12.0" fill="#4C4D4C" transform="matrix(1.00, 0.00, -0.00, -1.00, 293.0, 4.0)">0</text><text xml:space="preserve" font-family="RobotoSlab-Regular" font-size="12.0" fill="#4C4D4C" transform="matrix(1.00, 0.00, -0.00, -1.00, 299.8, 4.0)">1</text><text xml:space="preserve" font-family="RobotoSlab-Regular" font-size="12.0" fill="#4C4D4C" transform="matrix(1.00, 0.00, -0.00, -1.00, 304.8, 4.0)">6</text></g></svg>