<?xml version="1.0" encoding="UTF-8" standalone="no"?><svg xmlns="http://www.w3.org/2000/svg" xmlns:xlink="http://www.w3.org/1999/xlink" clip-rule="evenodd" stroke-miterlimit="4.00" viewBox="0 0 1024 768"><desc>SVG generated by Keynote</desc><defs></defs><g transform="matrix(1.00, 0.00, -0.00, -1.00, 0.0, 768.0)"><path d="M 0.0 768.0 L 1024.0 768.0 L 1024.0 0.0 L 0.0 0.0 Z M 0.0 768.0 " fill="#FEFFFF"></path><text xml:space="preserve" font-family="RobotoSlab-Regular" font-size="12.0" fill="#4C4D4C" transform="matrix(1.00, 0.00, -0.00, -1.00, 357.0, 19.0)">S</text><text xml:space="preserve" font-family="RobotoSlab-Regular" font-size="12.0" fill="#4C4D4C" transform="matrix(1.00, 0.00, -0.00, -1.00, 364.3, 19.0)">h</text><text xml:space="preserve" font-family="RobotoSlab-Regular" font-size="12.0" fill="#4C4D4C" transform="matrix(1.00, 0.00, -0.00, -1.00, 372.0, 19.0)">a</text><text xml:space="preserve" font-family="RobotoSlab-Regular" font-size="12.0" fill="#4C4D4C" transform="matrix(1.00, 0.00, -0.00, -1.00, 378.7, 19.0)">d</text><text xml:space="preserve" font-family="RobotoSlab-Regular" font-size="12.0" fill="#4C4D4C" transform="matrix(1.00, 0.00, -0.00, -1.00, 385.9, 19.0)">i</text><text xml:space="preserve" font-family="RobotoSlab-Regular" font-size="12.0" fill="#4C4D4C" transform="matrix(1.00, 0.00, -0.00, -1.00, 389.8, 19.0)">n</text><text xml:space="preserve" font-family="RobotoSlab-Regular" font-size="12.0" fill="#4C4D4C" transform="matrix(1.00, 0.00, -0.00, -1.00, 397.5, 19.0)">g</text><text xml:space="preserve" font-family="RobotoSlab-Regular" font-size="12.0" fill="#4C4D4C" transform="matrix(1.00, 0.00, -0.00, -1.00, 404.2, 19.0)"> </text><text xml:space="preserve" font-family="RobotoSlab-Regular" font-size="12.0" fill="#4C4D4C" transform="matrix(1.00, 0.00, -0.00, -1.00, 407.2, 19.0)">d</text><text xml:space="preserve" font-family="RobotoSlab-Regular" font-size="12.0" fill="#4C4D4C" transform="matrix(1.00, 0.00, -0.00, -1.00, 414.4, 19.0)">e</text><text xml:space="preserve" font-family="RobotoSlab-Regular" font-size="12.0" fill="#4C4D4C" transform="matrix(1.00, 0.00, -0.00, -1.00, 420.8, 19.0)">v</text><text xml:space="preserve" font-family="RobotoSlab-Regular" font-size="12.0" fill="#4C4D4C" transform="matrix(1.00, 0.00, -0.00, -1.00, 427.5, 19.0)">i</text><text xml:space="preserve" font-family="RobotoSlab-Regular" font-size="12.0" fill="#4C4D4C" transform="matrix(1.00, 0.00, -0.00, -1.00, 431.4, 19.0)">c</text><text xml:space="preserve" font-family="RobotoSlab-Regular" font-size="12.0" fill="#4C4D4C" transform="matrix(1.00, 0.00, -0.00, -1.00, 437.9, 19.0)">e</text><text xml:space="preserve" font-family="RobotoSlab-Regular" font-size="12.0" fill="#4C4D4C" transform="matrix(1.00, 0.00, -0.00, -1.00, 444.3, 19.0)"> </text><text xml:space="preserve" font-family="RobotoSlab-Regular" font-size="12.0" fill="#4C4D4C" transform="matrix(1.00, 0.00, -0.00, -1.00, 447.3, 19.0)">-</text><text xml:space="preserve" font-family="RobotoSlab-Regular" font-size="12.0" fill="#4C4D4C" transform="matrix(1.00, 0.00, -0.00, -1.00, 452.0, 19.0)"> </text><text xml:space="preserve" font-family="RobotoSlab-Regular" font-size="12.0" fill="#4C4D4C" transform="matrix(1.00, 0.00, -0.00, -1.00, 455.0, 19.0)">L</text><text xml:space="preserve" font-family="RobotoSlab-Regular" font-size="12.0" fill="#4C4D4C" transform="matrix(1.00, 0.00, -0.00, -1.00, 462.0, 19.0)">.</text><text xml:space="preserve" font-family="RobotoSlab-Regular" font-size="12.0" fill="#4C4D4C" transform="matrix(1.00, 0.00, -0.00, -1.00, 464.9, 19.0)"> </text><text xml:space="preserve" font-family="RobotoSlab-Regular" font-size="12.0" fill="#4C4D4C" transform="matrix(1.00, 0.00, -0.00, -1.00, 467.9, 19.0)">d</text><text xml:space="preserve" font-family="RobotoSlab-Regular" font-size="12.0" fill="#4C4D4C" transform="matrix(1.00, 0.00, -0.00, -1.00, 475.1, 19.0)">u</text><text xml:space="preserve" font-family="RobotoSlab-Regular" font-size="12.0" fill="#4C4D4C" transform="matrix(1.00, 0.00, -0.00, -1.00, 482.4, 19.0)"> </text><text xml:space="preserve" font-family="RobotoSlab-Regular" font-size="12.0" fill="#4C4D4C" transform="matrix(1.00, 0.00, -0.00, -1.00, 485.3, 19.0)">P</text><text xml:space="preserve" font-family="RobotoSlab-Regular" font-size="12.0" fill="#4C4D4C" transform="matrix(1.00, 0.00, -0.00, -1.00, 492.9, 19.0)">e</text><text xml:space="preserve" font-family="RobotoSlab-Regular" font-size="12.0" fill="#4C4D4C" transform="matrix(1.00, 0.00, -0.00, -1.00, 499.3, 19.0)">l</text><text xml:space="preserve" font-family="RobotoSlab-Regular" font-size="12.0" fill="#4C4D4C" transform="matrix(1.00, 0.00, -0.00, -1.00, 503.0, 19.0)">o</text><text xml:space="preserve" font-family="RobotoSlab-Regular" font-size="12.0" fill="#4C4D4C" transform="matrix(1.00, 0.00, -0.00, -1.00, 509.7, 19.0)">u</text><text xml:space="preserve" font-family="RobotoSlab-Regular" font-size="12.0" fill="#4C4D4C" transform="matrix(1.00, 0.00, -0.00, -1.00, 517.0, 19.0)">x</text><text xml:space="preserve" font-family="RobotoSlab-Regular" font-size="12.0" fill="#4C4D4C" transform="matrix(1.00, 0.00, -0.00, -1.00, 524.0, 19.0)"> </text><text xml:space="preserve" font-family="RobotoSlab-Regular" font-size="12.0" fill="#4C4D4C" transform="matrix(1.00, 0.00, -0.00, -1.00, 527.0, 19.0)">@</text><text xml:space="preserve" font-family="RobotoSlab-Regular" font-size="12.0" fill="#4C4D4C" transform="matrix(1.00, 0.00, -0.00, -1.00, 537.7, 19.0)">P</text><text xml:space="preserve" font-family="RobotoSlab-Regular" font-size="12.0" fill="#4C4D4C" transform="matrix(1.00, 0.00, -0.00, -1.00, 545.3, 19.0)">r</text><text xml:space="preserve" font-family="RobotoSlab-Regular" font-size="12.0" fill="#4C4D4C" transform="matrix(1.00, 0.00, -0.00, -1.00, 550.2, 19.0)">i</text><text xml:space="preserve" font-family="RobotoSlab-Regular" font-size="12.0" fill="#4C4D4C" transform="matrix(1.00, 0.00, -0.00, -1.00, 554.2, 19.0)">n</text><text xml:space="preserve" font-family="RobotoSlab-Regular" font-size="12.0" fill="#4C4D4C" transform="matrix(1.00, 0.00, -0.00, -1.00, 561.8, 19.0)">c</text><text xml:space="preserve" font-family="RobotoSlab-Regular" font-size="12.0" fill="#4C4D4C" transform="matrix(1.00, 0.00, -0.00, -1.00, 568.3, 19.0)">e</text><text xml:space="preserve" font-family="RobotoSlab-Regular" font-size="12.0" fill="#4C4D4C" transform="matrix(1.00, 0.00, -0.00, -1.00, 574.7, 19.0)">t</text><text xml:space="preserve" font-family="RobotoSlab-Regular" font-size="12.0" fill="#4C4D4C" transform="matrix(1.00, 0.00, -0.00, -1.00, 579.0, 19.0)">o</text><text xml:space="preserve" font-family="RobotoSlab-Regular" font-size="12.0" fill="#4C4D4C" transform="matrix(1.00, 0.00, -0.00, -1.00, 585.8, 19.0)">n</text><text xml:space="preserve" font-family="RobotoSlab-Regular" font-size="12.0" fill="#4C4D4C" transform="matrix(1.00, 0.00, -0.00, -1.00, 593.5, 19.0)"> </text><text xml:space="preserve" font-family="RobotoSlab-Regular" font-size="12.0" fill="#4C4D4C" transform="matrix(1.00, 0.00, -0.00, -1.00, 596.5, 19.0)">-</text><text xml:space="preserve" font-family="RobotoSlab-Regular" font-size="12.0" fill="#4C4D4C" transform="matrix(1.00, 0.00, -0.00, -1.00, 601.1, 19.0)"> </text><text xml:space="preserve" font-family="RobotoSlab-Regular" font-size="12.0" fill="#4C4D4C" transform="matrix(1.00, 0.00, -0.00, -1.00, 604.1, 19.0)">1</text><text xml:space="preserve" font-family="RobotoSlab-Regular" font-size="12.0" fill="#4C4D4C" transform="matrix(1.00, 0.00, -0.00, -1.00, 609.1, 19.0)">0</text><text xml:space="preserve" font-family="RobotoSlab-Regular" font-size="12.0" fill="#4C4D4C" transform="matrix(1.00, 0.00, -0.00, -1.00, 615.9, 19.0)"> </text><text xml:space="preserve" font-family="RobotoSlab-Regular" font-size="12.0" fill="#4C4D4C" transform="matrix(1.00, 0.00, -0.00, -1.00, 618.9, 19.0)">o</text><text xml:space="preserve" font-family="RobotoSlab-Regular" font-size="12.0" fill="#4C4D4C" transform="matrix(1.00, 0.00, -0.00, -1.00, 625.6, 19.0)">c</text><text xml:space="preserve" font-family="RobotoSlab-Regular" font-size="12.0" fill="#4C4D4C" transform="matrix(1.00, 0.00, -0.00, -1.00, 632.1, 19.0)">t</text><text xml:space="preserve" font-family="RobotoSlab-Regular" font-size="12.0" fill="#4C4D4C" transform="matrix(1.00, 0.00, -0.00, -1.00, 636.5, 19.0)">.</text><text xml:space="preserve" font-family="RobotoSlab-Regular" font-size="12.0" fill="#4C4D4C" transform="matrix(1.00, 0.00, -0.00, -1.00, 639.4, 19.0)"> </text><text xml:space="preserve" font-family="RobotoSlab-Regular" font-size="12.0" fill="#4C4D4C" transform="matrix(1.00, 0.00, -0.00, -1.00, 642.3, 19.0)">2</text><text xml:space="preserve" font-family="RobotoSlab-Regular" font-size="12.0" fill="#4C4D4C" transform="matrix(1.00, 0.00, -0.00, -1.00, 649.0, 19.0)">0</text><text xml:space="preserve" font-family="RobotoSlab-Regular" font-size="12.0" fill="#4C4D4C" transform="matrix(1.00, 0.00, -0.00, -1.00, 655.8, 19.0)">1</text><text xml:space="preserve" font-family="RobotoSlab-Regular" font-size="12.0" fill="#4C4D4C" transform="matrix(1.00, 0.00, -0.00, -1.00, 660.8, 19.0)">6</text><text xml:space="preserve" font-family="RobotoSlab-Bold" font-weight="bold" font-size="18.0" fill="#0099C8" transform="matrix(1.00, 0.00, -0.00, -1.00, 16.0, 17.0)">T</text><text xml:space="preserve" font-family="RobotoSlab-Bold" font-weight="bold" font-size="18.0" fill="#0099C8" transform="matrix(1.00, 0.00, -0.00, -1.00, 28.1, 17.0)">H</text><text xml:space="preserve" font-family="RobotoSlab-Bold" font-weight="bold" font-size="18.0" fill="#0099C8" transform="matrix(1.00, 0.00, -0.00, -1.00, 42.2, 17.0)">I</text><text xml:space="preserve" font-family="RobotoSlab-Bold" font-weight="bold" font-size="18.0" fill="#0099C8" transform="matrix(1.00, 0.00, -0.00, -1.00, 48.4, 17.0)">N</text><text xml:space="preserve" font-family="RobotoSlab-Bold" font-weight="bold" font-size="18.0" fill="#0099C8" transform="matrix(1.00, 0.00, -0.00, -1.00, 62.4, 17.0)">k</text><text xml:space="preserve" font-family="RobotoSlab-Bold" font-weight="bold" font-size="18.0" fill="#0099C8" transform="matrix(1.00, 0.00, -0.00, -1.00, 73.3, 17.0)">S</text><text xml:space="preserve" font-family="RobotoSlab-Bold" font-weight="bold" font-size="18.0" fill="#0099C8" transform="matrix(1.00, 0.00, -0.00, -1.00, 84.2, 17.0)">H</text><text xml:space="preserve" font-family="RobotoSlab-Bold" font-weight="bold" font-size="18.0" fill="#0099C8" transform="matrix(1.00, 0.00, -0.00, -1.00, 98.3, 17.0)">E</text><text xml:space="preserve" font-family="RobotoSlab-Bold" font-weight="bold" font-size="18.0" fill="#0099C8" transform="matrix(1.00, 0.00, -0.00, -1.00, 109.8, 17.0)">L</text><text xml:space="preserve" font-family="RobotoSlab-Bold" font-weight="bold" font-size="18.0" fill="#0099C8" transform="matrix(1.00, 0.00, -0.00, -1.00, 120.3, 17.0)">L</text><text xml:space="preserve" font-family="RobotoSlab-Bold" font-weight="bold" font-size="18.0" fill="#0099C8" transform="matrix(1.00, 0.00, -0.00, -1.00, 130.9, 17.0)">.</text><text xml:space="preserve" font-family="RobotoSlab-Bold" font-weight="bold" font-size="18.0" fill="#0099C8" transform="matrix(1.00, 0.00, -0.00, -1.00, 135.4, 17.0)">f</text><text xml:space="preserve" font-family="RobotoSlab-Bold" font-weight="bold" font-size="18.0" fill="#0099C8" transform="matrix(1.00, 0.00, -0.00, -1.00, 142.1, 17.0)">r</text><path d="M 12.0 755.5 L 1012.0 755.5 L 1012.0 635.6 L 12.0 635.6 Z M 12.0 755.5 " fill="#EAEAEA"></path><path d="M 0.0 0.0 L 1000.0 0.0 " fill="none" stroke="#0099C8" stroke-width="1.00" transform="matrix(1.00, 0.00, 0.00, -1.00, 12.0, 636.1)"></path><path d="M 12.0 629.7 L 1012.0 629.7 L 1012.0 610.1 L 12.0 610.1 Z M 12.0 629.7 " fill="#000000"></path><text xml:space="preserve" font-family="RobotoSlab-Regular" font-size="38.0" fill="#1A1918" transform="matrix(1.00, 0.00, -0.00, -1.00, 44.0, 684.0)">C</text><text xml:space="preserve" font-family="RobotoSlab-Regular" font-size="38.0" fill="#1A1918" transform="matrix(1.00, 0.00, -0.00, -1.00, 68.5, 684.0)">U</text><text xml:space="preserve" font-family="RobotoSlab-Regular" font-size="38.0" fill="#1A1918" transform="matrix(1.00, 0.00, -0.00, -1.00, 97.1, 684.0)">R</text><text xml:space="preserve" font-family="RobotoSlab-Regular" font-size="38.0" fill="#1A1918" transform="matrix(1.00, 0.00, -0.00, -1.00, 121.3, 684.0)">V</text><text xml:space="preserve" font-family="RobotoSlab-Regular" font-size="38.0" fill="#1A1918" transform="matrix(1.00, 0.00, -0.00, -1.00, 148.6, 684.0)">E</text><text xml:space="preserve" font-family="RobotoSlab-Regular" font-size="38.0" fill="#1A1918" transform="matrix(1.00, 0.00, -0.00, -1.00, 172.8, 684.0)">D</text><text xml:space="preserve" font-family="RobotoSlab-Regular" font-size="38.0" fill="#1A1918" transform="matrix(1.00, 0.00, -0.00, -1.00, 199.2, 684.0)"> </text><text xml:space="preserve" font-family="RobotoSlab-Regular" font-size="38.0" fill="#1A1918" transform="matrix(1.00, 0.00, -0.00, -1.00, 208.6, 684.0)">F</text><text xml:space="preserve" font-family="RobotoSlab-Regular" font-size="38.0" fill="#1A1918" transform="matrix(1.00, 0.00, -0.00, -1.00, 231.3, 684.0)">O</text><text xml:space="preserve" font-family="RobotoSlab-Regular" font-size="38.0" fill="#1A1918" transform="matrix(1.00, 0.00, -0.00, -1.00, 258.1, 684.0)">L</text><text xml:space="preserve" font-family="RobotoSlab-Regular" font-size="38.0" fill="#1A1918" transform="matrix(1.00, 0.00, -0.00, -1.00, 280.3, 684.0)">D</text><text xml:space="preserve" font-family="RobotoSlab-Regular" font-size="38.0" fill="#1A1918" transform="matrix(1.00, 0.00, -0.00, -1.00, 306.6, 684.0)">I</text><text xml:space="preserve" font-family="RobotoSlab-Regular" font-size="38.0" fill="#1A1918" transform="matrix(1.00, 0.00, -0.00, -1.00, 318.9, 684.0)">N</text><text xml:space="preserve" font-family="RobotoSlab-Regular" font-size="38.0" fill="#1A1918" transform="matrix(1.00, 0.00, -0.00, -1.00, 347.9, 684.0)">G</text><text xml:space="preserve" font-family="RobotoSlab-Regular" font-size="38.0" fill="#1A1918" transform="matrix(1.00, 0.00, -0.00, -1.00, 373.6, 684.0)"> </text><text xml:space="preserve" font-family="RobotoSlab-Regular" font-size="38.0" fill="#1A1918" transform="matrix(1.00, 0.00, -0.00, -1.00, 383.0, 684.0)">-</text><text xml:space="preserve" font-family="RobotoSlab-Regular" font-size="38.0" fill="#1A1918" transform="matrix(1.00, 0.00, -0.00, -1.00, 397.8, 684.0)"> </text><text xml:space="preserve" font-family="RobotoSlab-Regular" font-size="38.0" fill="#1A1918" transform="matrix(1.00, 0.00, -0.00, -1.00, 407.3, 684.0)">W</text><text xml:space="preserve" font-family="RobotoSlab-Regular" font-size="38.0" fill="#1A1918" transform="matrix(1.00, 0.00, -0.00, -1.00, 442.7, 684.0)">I</text><text xml:space="preserve" font-family="RobotoSlab-Regular" font-size="38.0" fill="#1A1918" transform="matrix(1.00, 0.00, -0.00, -1.00, 455.0, 684.0)">T</text><text xml:space="preserve" font-family="RobotoSlab-Regular" font-size="38.0" fill="#1A1918" transform="matrix(1.00, 0.00, -0.00, -1.00, 478.8, 684.0)">H</text><text xml:space="preserve" font-family="RobotoSlab-Regular" font-size="38.0" fill="#1A1918" transform="matrix(1.00, 0.00, -0.00, -1.00, 508.0, 684.0)"> </text><text xml:space="preserve" font-family="RobotoSlab-Regular" font-size="38.0" fill="#1A1918" transform="matrix(1.00, 0.00, -0.00, -1.00, 517.4, 684.0)">R</text><text xml:space="preserve" font-family="RobotoSlab-Regular" font-size="38.0" fill="#1A1918" transform="matrix(1.00, 0.00, -0.00, -1.00, 543.1, 684.0)">O</text><text xml:space="preserve" font-family="RobotoSlab-Regular" font-size="38.0" fill="#1A1918" transform="matrix(1.00, 0.00, -0.00, -1.00, 569.9, 684.0)">B</text><text xml:space="preserve" font-family="RobotoSlab-Regular" font-size="38.0" fill="#1A1918" transform="matrix(1.00, 0.00, -0.00, -1.00, 594.9, 684.0)">O</text><text xml:space="preserve" font-family="RobotoSlab-Regular" font-size="38.0" fill="#1A1918" transform="matrix(1.00, 0.00, -0.00, -1.00, 621.2, 684.0)">T</text><text xml:space="preserve" font-family="RobotoSlab-Regular" font-size="38.0" fill="#1A1918" transform="matrix(1.00, 0.00, -0.00, -1.00, 644.7, 684.0)">S</text><text xml:space="preserve" font-family="RobotoSlab-Bold" font-weight="bold" font-size="20.0" fill="#0099C8" transform="matrix(1.00, 0.00, -0.00, -1.00, 985.9, 16.4)">3</text><text xml:space="preserve" font-family="RobotoSlab-Bold" font-weight="bold" font-size="20.0" fill="#0099C8" transform="matrix(1.00, 0.00, -0.00, -1.00, 996.7, 16.4)">4</text><image xlink:href="../../9BBBAC49-DE42-4E85-9EB5-3E94C2EC443D/assets/F1611FFE2198B0FD779E1DBA5956AA95.png" width="854.00" height="480.00" transform="matrix(1.17, 0.00, -0.00, -1.17, 12.0, 610.0)"></image></g></svg>