<?xml version="1.0" encoding="UTF-8" standalone="no"?><svg xmlns="http://www.w3.org/2000/svg" xmlns:xlink="http://www.w3.org/1999/xlink" clip-rule="evenodd" stroke-miterlimit="4.00" viewBox="0 0 1024 768"><desc>SVG generated by Keynote</desc><defs></defs><g transform="matrix(1.00, 0.00, -0.00, -1.00, 0.0, 768.0)"><path d="M 0.0 768.0 L 1024.0 768.0 L 1024.0 0.0 L 0.0 0.0 Z M 0.0 768.0 " fill="#FEFFFF"></path><text xml:space="preserve" font-family="RobotoSlab-Regular" font-size="12.0" fill="#4C4D4C" transform="matrix(1.00, 0.00, -0.00, -1.00, 357.0, 19.0)">S</text><text xml:space="preserve" font-family="RobotoSlab-Regular" font-size="12.0" fill="#4C4D4C" transform="matrix(1.00, 0.00, -0.00, -1.00, 364.3, 19.0)">h</text><text xml:space="preserve" font-family="RobotoSlab-Regular" font-size="12.0" fill="#4C4D4C" transform="matrix(1.00, 0.00, -0.00, -1.00, 372.0, 19.0)">a</text><text xml:space="preserve" font-family="RobotoSlab-Regular" font-size="12.0" fill="#4C4D4C" transform="matrix(1.00, 0.00, -0.00, -1.00, 378.7, 19.0)">d</text><text xml:space="preserve" font-family="RobotoSlab-Regular" font-size="12.0" fill="#4C4D4C" transform="matrix(1.00, 0.00, -0.00, -1.00, 385.9, 19.0)">i</text><text xml:space="preserve" font-family="RobotoSlab-Regular" font-size="12.0" fill="#4C4D4C" transform="matrix(1.00, 0.00, -0.00, -1.00, 389.8, 19.0)">n</text><text xml:space="preserve" font-family="RobotoSlab-Regular" font-size="12.0" fill="#4C4D4C" transform="matrix(1.00, 0.00, -0.00, -1.00, 397.5, 19.0)">g</text><text xml:space="preserve" font-family="RobotoSlab-Regular" font-size="12.0" fill="#4C4D4C" transform="matrix(1.00, 0.00, -0.00, -1.00, 404.2, 19.0)"> </text><text xml:space="preserve" font-family="RobotoSlab-Regular" font-size="12.0" fill="#4C4D4C" transform="matrix(1.00, 0.00, -0.00, -1.00, 407.2, 19.0)">d</text><text xml:space="preserve" font-family="RobotoSlab-Regular" font-size="12.0" fill="#4C4D4C" transform="matrix(1.00, 0.00, -0.00, -1.00, 414.4, 19.0)">e</text><text xml:space="preserve" font-family="RobotoSlab-Regular" font-size="12.0" fill="#4C4D4C" transform="matrix(1.00, 0.00, -0.00, -1.00, 420.8, 19.0)">v</text><text xml:space="preserve" font-family="RobotoSlab-Regular" font-size="12.0" fill="#4C4D4C" transform="matrix(1.00, 0.00, -0.00, -1.00, 427.5, 19.0)">i</text><text xml:space="preserve" font-family="RobotoSlab-Regular" font-size="12.0" fill="#4C4D4C" transform="matrix(1.00, 0.00, -0.00, -1.00, 431.4, 19.0)">c</text><text xml:space="preserve" font-family="RobotoSlab-Regular" font-size="12.0" fill="#4C4D4C" transform="matrix(1.00, 0.00, -0.00, -1.00, 437.9, 19.0)">e</text><text xml:space="preserve" font-family="RobotoSlab-Regular" font-size="12.0" fill="#4C4D4C" transform="matrix(1.00, 0.00, -0.00, -1.00, 444.3, 19.0)"> </text><text xml:space="preserve" font-family="RobotoSlab-Regular" font-size="12.0" fill="#4C4D4C" transform="matrix(1.00, 0.00, -0.00, -1.00, 447.3, 19.0)">-</text><text xml:space="preserve" font-family="RobotoSlab-Regular" font-size="12.0" fill="#4C4D4C" transform="matrix(1.00, 0.00, -0.00, -1.00, 452.0, 19.0)"> </text><text xml:space="preserve" font-family="RobotoSlab-Regular" font-size="12.0" fill="#4C4D4C" transform="matrix(1.00, 0.00, -0.00, -1.00, 455.0, 19.0)">L</text><text xml:space="preserve" font-family="RobotoSlab-Regular" font-size="12.0" fill="#4C4D4C" transform="matrix(1.00, 0.00, -0.00, -1.00, 462.0, 19.0)">.</text><text xml:space="preserve" font-family="RobotoSlab-Regular" font-size="12.0" fill="#4C4D4C" transform="matrix(1.00, 0.00, -0.00, -1.00, 464.9, 19.0)"> </text><text xml:space="preserve" font-family="RobotoSlab-Regular" font-size="12.0" fill="#4C4D4C" transform="matrix(1.00, 0.00, -0.00, -1.00, 467.9, 19.0)">d</text><text xml:space="preserve" font-family="RobotoSlab-Regular" font-size="12.0" fill="#4C4D4C" transform="matrix(1.00, 0.00, -0.00, -1.00, 475.1, 19.0)">u</text><text xml:space="preserve" font-family="RobotoSlab-Regular" font-size="12.0" fill="#4C4D4C" transform="matrix(1.00, 0.00, -0.00, -1.00, 482.4, 19.0)"> </text><text xml:space="preserve" font-family="RobotoSlab-Regular" font-size="12.0" fill="#4C4D4C" transform="matrix(1.00, 0.00, -0.00, -1.00, 485.3, 19.0)">P</text><text xml:space="preserve" font-family="RobotoSlab-Regular" font-size="12.0" fill="#4C4D4C" transform="matrix(1.00, 0.00, -0.00, -1.00, 492.9, 19.0)">e</text><text xml:space="preserve" font-family="RobotoSlab-Regular" font-size="12.0" fill="#4C4D4C" transform="matrix(1.00, 0.00, -0.00, -1.00, 499.3, 19.0)">l</text><text xml:space="preserve" font-family="RobotoSlab-Regular" font-size="12.0" fill="#4C4D4C" transform="matrix(1.00, 0.00, -0.00, -1.00, 503.0, 19.0)">o</text><text xml:space="preserve" font-family="RobotoSlab-Regular" font-size="12.0" fill="#4C4D4C" transform="matrix(1.00, 0.00, -0.00, -1.00, 509.7, 19.0)">u</text><text xml:space="preserve" font-family="RobotoSlab-Regular" font-size="12.0" fill="#4C4D4C" transform="matrix(1.00, 0.00, -0.00, -1.00, 517.0, 19.0)">x</text><text xml:space="preserve" font-family="RobotoSlab-Regular" font-size="12.0" fill="#4C4D4C" transform="matrix(1.00, 0.00, -0.00, -1.00, 524.0, 19.0)"> </text><text xml:space="preserve" font-family="RobotoSlab-Regular" font-size="12.0" fill="#4C4D4C" transform="matrix(1.00, 0.00, -0.00, -1.00, 527.0, 19.0)">@</text><text xml:space="preserve" font-family="RobotoSlab-Regular" font-size="12.0" fill="#4C4D4C" transform="matrix(1.00, 0.00, -0.00, -1.00, 537.7, 19.0)">P</text><text xml:space="preserve" font-family="RobotoSlab-Regular" font-size="12.0" fill="#4C4D4C" transform="matrix(1.00, 0.00, -0.00, -1.00, 545.3, 19.0)">r</text><text xml:space="preserve" font-family="RobotoSlab-Regular" font-size="12.0" fill="#4C4D4C" transform="matrix(1.00, 0.00, -0.00, -1.00, 550.2, 19.0)">i</text><text xml:space="preserve" font-family="RobotoSlab-Regular" font-size="12.0" fill="#4C4D4C" transform="matrix(1.00, 0.00, -0.00, -1.00, 554.2, 19.0)">n</text><text xml:space="preserve" font-family="RobotoSlab-Regular" font-size="12.0" fill="#4C4D4C" transform="matrix(1.00, 0.00, -0.00, -1.00, 561.8, 19.0)">c</text><text xml:space="preserve" font-family="RobotoSlab-Regular" font-size="12.0" fill="#4C4D4C" transform="matrix(1.00, 0.00, -0.00, -1.00, 568.3, 19.0)">e</text><text xml:space="preserve" font-family="RobotoSlab-Regular" font-size="12.0" fill="#4C4D4C" transform="matrix(1.00, 0.00, -0.00, -1.00, 574.7, 19.0)">t</text><text xml:space="preserve" font-family="RobotoSlab-Regular" font-size="12.0" fill="#4C4D4C" transform="matrix(1.00, 0.00, -0.00, -1.00, 579.0, 19.0)">o</text><text xml:space="preserve" font-family="RobotoSlab-Regular" font-size="12.0" fill="#4C4D4C" transform="matrix(1.00, 0.00, -0.00, -1.00, 585.8, 19.0)">n</text><text xml:space="preserve" font-family="RobotoSlab-Regular" font-size="12.0" fill="#4C4D4C" transform="matrix(1.00, 0.00, -0.00, -1.00, 593.5, 19.0)"> </text><text xml:space="preserve" font-family="RobotoSlab-Regular" font-size="12.0" fill="#4C4D4C" transform="matrix(1.00, 0.00, -0.00, -1.00, 596.5, 19.0)">-</text><text xml:space="preserve" font-family="RobotoSlab-Regular" font-size="12.0" fill="#4C4D4C" transform="matrix(1.00, 0.00, -0.00, -1.00, 601.1, 19.0)"> </text><text xml:space="preserve" font-family="RobotoSlab-Regular" font-size="12.0" fill="#4C4D4C" transform="matrix(1.00, 0.00, -0.00, -1.00, 604.1, 19.0)">1</text><text xml:space="preserve" font-family="RobotoSlab-Regular" font-size="12.0" fill="#4C4D4C" transform="matrix(1.00, 0.00, -0.00, -1.00, 609.1, 19.0)">0</text><text xml:space="preserve" font-family="RobotoSlab-Regular" font-size="12.0" fill="#4C4D4C" transform="matrix(1.00, 0.00, -0.00, -1.00, 615.9, 19.0)"> </text><text xml:space="preserve" font-family="RobotoSlab-Regular" font-size="12.0" fill="#4C4D4C" transform="matrix(1.00, 0.00, -0.00, -1.00, 618.9, 19.0)">o</text><text xml:space="preserve" font-family="RobotoSlab-Regular" font-size="12.0" fill="#4C4D4C" transform="matrix(1.00, 0.00, -0.00, -1.00, 625.6, 19.0)">c</text><text xml:space="preserve" font-family="RobotoSlab-Regular" font-size="12.0" fill="#4C4D4C" transform="matrix(1.00, 0.00, -0.00, -1.00, 632.1, 19.0)">t</text><text xml:space="preserve" font-family="RobotoSlab-Regular" font-size="12.0" fill="#4C4D4C" transform="matrix(1.00, 0.00, -0.00, -1.00, 636.5, 19.0)">.</text><text xml:space="preserve" font-family="RobotoSlab-Regular" font-size="12.0" fill="#4C4D4C" transform="matrix(1.00, 0.00, -0.00, -1.00, 639.4, 19.0)"> </text><text xml:space="preserve" font-family="RobotoSlab-Regular" font-size="12.0" fill="#4C4D4C" transform="matrix(1.00, 0.00, -0.00, -1.00, 642.3, 19.0)">2</text><text xml:space="preserve" font-family="RobotoSlab-Regular" font-size="12.0" fill="#4C4D4C" transform="matrix(1.00, 0.00, -0.00, -1.00, 649.0, 19.0)">0</text><text xml:space="preserve" font-family="RobotoSlab-Regular" font-size="12.0" fill="#4C4D4C" transform="matrix(1.00, 0.00, -0.00, -1.00, 655.8, 19.0)">1</text><text xml:space="preserve" font-family="RobotoSlab-Regular" font-size="12.0" fill="#4C4D4C" transform="matrix(1.00, 0.00, -0.00, -1.00, 660.8, 19.0)">6</text><text xml:space="preserve" font-family="RobotoSlab-Bold" font-weight="bold" font-size="18.0" fill="#0099C8" transform="matrix(1.00, 0.00, -0.00, -1.00, 16.0, 17.0)">T</text><text xml:space="preserve" font-family="RobotoSlab-Bold" font-weight="bold" font-size="18.0" fill="#0099C8" transform="matrix(1.00, 0.00, -0.00, -1.00, 28.1, 17.0)">H</text><text xml:space="preserve" font-family="RobotoSlab-Bold" font-weight="bold" font-size="18.0" fill="#0099C8" transform="matrix(1.00, 0.00, -0.00, -1.00, 42.2, 17.0)">I</text><text xml:space="preserve" font-family="RobotoSlab-Bold" font-weight="bold" font-size="18.0" fill="#0099C8" transform="matrix(1.00, 0.00, -0.00, -1.00, 48.4, 17.0)">N</text><text xml:space="preserve" font-family="RobotoSlab-Bold" font-weight="bold" font-size="18.0" fill="#0099C8" transform="matrix(1.00, 0.00, -0.00, -1.00, 62.4, 17.0)">k</text><text xml:space="preserve" font-family="RobotoSlab-Bold" font-weight="bold" font-size="18.0" fill="#0099C8" transform="matrix(1.00, 0.00, -0.00, -1.00, 73.3, 17.0)">S</text><text xml:space="preserve" font-family="RobotoSlab-Bold" font-weight="bold" font-size="18.0" fill="#0099C8" transform="matrix(1.00, 0.00, -0.00, -1.00, 84.2, 17.0)">H</text><text xml:space="preserve" font-family="RobotoSlab-Bold" font-weight="bold" font-size="18.0" fill="#0099C8" transform="matrix(1.00, 0.00, -0.00, -1.00, 98.3, 17.0)">E</text><text xml:space="preserve" font-family="RobotoSlab-Bold" font-weight="bold" font-size="18.0" fill="#0099C8" transform="matrix(1.00, 0.00, -0.00, -1.00, 109.8, 17.0)">L</text><text xml:space="preserve" font-family="RobotoSlab-Bold" font-weight="bold" font-size="18.0" fill="#0099C8" transform="matrix(1.00, 0.00, -0.00, -1.00, 120.3, 17.0)">L</text><text xml:space="preserve" font-family="RobotoSlab-Bold" font-weight="bold" font-size="18.0" fill="#0099C8" transform="matrix(1.00, 0.00, -0.00, -1.00, 130.9, 17.0)">.</text><text xml:space="preserve" font-family="RobotoSlab-Bold" font-weight="bold" font-size="18.0" fill="#0099C8" transform="matrix(1.00, 0.00, -0.00, -1.00, 135.4, 17.0)">f</text><text xml:space="preserve" font-family="RobotoSlab-Bold" font-weight="bold" font-size="18.0" fill="#0099C8" transform="matrix(1.00, 0.00, -0.00, -1.00, 142.1, 17.0)">r</text><path d="M 12.0 755.5 L 1012.0 755.5 L 1012.0 635.6 L 12.0 635.6 Z M 12.0 755.5 " fill="#EAEAEA"></path><path d="M 0.0 0.0 L 1000.0 0.0 " fill="none" stroke="#0099C8" stroke-width="1.00" transform="matrix(1.00, 0.00, 0.00, -1.00, 12.0, 636.1)"></path><text xml:space="preserve" font-family="RobotoSlab-Regular" font-size="38.0" fill="#1A1918" transform="matrix(1.00, 0.00, -0.00, -1.00, 44.0, 684.0)">C</text><text xml:space="preserve" font-family="RobotoSlab-Regular" font-size="38.0" fill="#1A1918" transform="matrix(1.00, 0.00, -0.00, -1.00, 68.5, 684.0)">I</text><text xml:space="preserve" font-family="RobotoSlab-Regular" font-size="38.0" fill="#1A1918" transform="matrix(1.00, 0.00, -0.00, -1.00, 80.8, 684.0)">T</text><text xml:space="preserve" font-family="RobotoSlab-Regular" font-size="38.0" fill="#1A1918" transform="matrix(1.00, 0.00, -0.00, -1.00, 104.9, 684.0)">Y</text><text xml:space="preserve" font-family="RobotoSlab-Regular" font-size="38.0" fill="#1A1918" transform="matrix(1.00, 0.00, -0.00, -1.00, 131.2, 684.0)"> </text><text xml:space="preserve" font-family="RobotoSlab-Regular" font-size="38.0" fill="#1A1918" transform="matrix(1.00, 0.00, -0.00, -1.00, 140.6, 684.0)">C</text><text xml:space="preserve" font-family="RobotoSlab-Regular" font-size="38.0" fill="#1A1918" transform="matrix(1.00, 0.00, -0.00, -1.00, 165.1, 684.0)">O</text><text xml:space="preserve" font-family="RobotoSlab-Regular" font-size="38.0" fill="#1A1918" transform="matrix(1.00, 0.00, -0.00, -1.00, 191.9, 684.0)">U</text><text xml:space="preserve" font-family="RobotoSlab-Regular" font-size="38.0" fill="#1A1918" transform="matrix(1.00, 0.00, -0.00, -1.00, 220.6, 684.0)">N</text><text xml:space="preserve" font-family="RobotoSlab-Regular" font-size="38.0" fill="#1A1918" transform="matrix(1.00, 0.00, -0.00, -1.00, 249.5, 684.0)">C</text><text xml:space="preserve" font-family="RobotoSlab-Regular" font-size="38.0" fill="#1A1918" transform="matrix(1.00, 0.00, -0.00, -1.00, 274.0, 684.0)">I</text><text xml:space="preserve" font-family="RobotoSlab-Regular" font-size="38.0" fill="#1A1918" transform="matrix(1.00, 0.00, -0.00, -1.00, 286.3, 684.0)">L</text><text xml:space="preserve" font-family="RobotoSlab-Regular" font-size="38.0" fill="#1A1918" transform="matrix(1.00, 0.00, -0.00, -1.00, 308.5, 684.0)"> </text><text xml:space="preserve" font-family="RobotoSlab-Regular" font-size="38.0" fill="#1A1918" transform="matrix(1.00, 0.00, -0.00, -1.00, 318.0, 684.0)">H</text><text xml:space="preserve" font-family="RobotoSlab-Regular" font-size="38.0" fill="#1A1918" transform="matrix(1.00, 0.00, -0.00, -1.00, 347.2, 684.0)">O</text><text xml:space="preserve" font-family="RobotoSlab-Regular" font-size="38.0" fill="#1A1918" transform="matrix(1.00, 0.00, -0.00, -1.00, 374.0, 684.0)">U</text><text xml:space="preserve" font-family="RobotoSlab-Regular" font-size="38.0" fill="#1A1918" transform="matrix(1.00, 0.00, -0.00, -1.00, 402.6, 684.0)">S</text><text xml:space="preserve" font-family="RobotoSlab-Regular" font-size="38.0" fill="#1A1918" transform="matrix(1.00, 0.00, -0.00, -1.00, 425.7, 684.0)">E</text><text xml:space="preserve" font-family="RobotoSlab-Regular" font-size="38.0" fill="#1A1918" transform="matrix(1.00, 0.00, -0.00, -1.00, 449.9, 684.0)"> </text><text xml:space="preserve" font-family="RobotoSlab-Regular" font-size="38.0" fill="#1A1918" transform="matrix(1.00, 0.00, -0.00, -1.00, 459.3, 684.0)">2</text><text xml:space="preserve" font-family="RobotoSlab-Regular" font-size="38.0" fill="#1A1918" transform="matrix(1.00, 0.00, -0.00, -1.00, 480.4, 684.0)"> </text><text xml:space="preserve" font-family="RobotoSlab-Regular" font-size="38.0" fill="#1A1918" transform="matrix(1.00, 0.00, -0.00, -1.00, 489.8, 684.0)">(</text><text xml:space="preserve" font-family="RobotoSlab-Regular" font-size="38.0" fill="#1A1918" transform="matrix(1.00, 0.00, -0.00, -1.00, 502.1, 684.0)">2</text><text xml:space="preserve" font-family="RobotoSlab-Regular" font-size="38.0" fill="#1A1918" transform="matrix(1.00, 0.00, -0.00, -1.00, 523.1, 684.0)">0</text><text xml:space="preserve" font-family="RobotoSlab-Regular" font-size="38.0" fill="#1A1918" transform="matrix(1.00, 0.00, -0.00, -1.00, 544.8, 684.0)">0</text><text xml:space="preserve" font-family="RobotoSlab-Regular" font-size="38.0" fill="#1A1918" transform="matrix(1.00, 0.00, -0.00, -1.00, 566.4, 684.0)">6</text><text xml:space="preserve" font-family="RobotoSlab-Regular" font-size="38.0" fill="#1A1918" transform="matrix(1.00, 0.00, -0.00, -1.00, 587.7, 684.0)">,</text><text xml:space="preserve" font-family="RobotoSlab-Regular" font-size="38.0" fill="#1A1918" transform="matrix(1.00, 0.00, -0.00, -1.00, 595.2, 684.0)"> </text><text xml:space="preserve" font-family="RobotoSlab-Regular" font-size="38.0" fill="#1A1918" transform="matrix(1.00, 0.00, -0.00, -1.00, 604.6, 684.0)">A</text><text xml:space="preserve" font-family="RobotoSlab-Regular" font-size="38.0" fill="#1A1918" transform="matrix(1.00, 0.00, -0.00, -1.00, 631.3, 684.0)">U</text><text xml:space="preserve" font-family="RobotoSlab-Regular" font-size="38.0" fill="#1A1918" transform="matrix(1.00, 0.00, -0.00, -1.00, 659.9, 684.0)">S</text><text xml:space="preserve" font-family="RobotoSlab-Regular" font-size="38.0" fill="#1A1918" transform="matrix(1.00, 0.00, -0.00, -1.00, 683.1, 684.0)">T</text><text xml:space="preserve" font-family="RobotoSlab-Regular" font-size="38.0" fill="#1A1918" transform="matrix(1.00, 0.00, -0.00, -1.00, 706.9, 684.0)">R</text><text xml:space="preserve" font-family="RobotoSlab-Regular" font-size="38.0" fill="#1A1918" transform="matrix(1.00, 0.00, -0.00, -1.00, 732.6, 684.0)">A</text><text xml:space="preserve" font-family="RobotoSlab-Regular" font-size="38.0" fill="#1A1918" transform="matrix(1.00, 0.00, -0.00, -1.00, 760.4, 684.0)">L</text><text xml:space="preserve" font-family="RobotoSlab-Regular" font-size="38.0" fill="#1A1918" transform="matrix(1.00, 0.00, -0.00, -1.00, 782.7, 684.0)">I</text><text xml:space="preserve" font-family="RobotoSlab-Regular" font-size="38.0" fill="#1A1918" transform="matrix(1.00, 0.00, -0.00, -1.00, 795.0, 684.0)">A</text><text xml:space="preserve" font-family="RobotoSlab-Regular" font-size="38.0" fill="#1A1918" transform="matrix(1.00, 0.00, -0.00, -1.00, 822.8, 684.0)">)</text><text xml:space="preserve" font-family="RobotoSlab-Bold" font-weight="bold" font-size="20.0" fill="#0099C8" transform="matrix(1.00, 0.00, -0.00, -1.00, 997.1, 16.4)">3</text><g><clipPath id="clip-74"><path d="M 12.0 630.0 L 509.0 630.0 L 509.0 48.0 L 12.0 48.0 Z M 12.0 629.7 "></path></clipPath><g clip-path="url(#clip-74)"><image xlink:href="830973AE5EC8CC93EDEA430DA13E9FEC.png" width="405.00" height="541.00" transform="matrix(1.23, 0.00, -0.00, -1.23, 12.0, 670.0)"></image></g></g><g><clipPath id="clip-75"><path d="M 515.0 630.0 L 1012.0 630.0 L 1012.0 48.0 L 515.0 48.0 Z M 515.0 629.9 "></path></clipPath><g clip-path="url(#clip-75)"><image xlink:href="DFFE605B52D1EAF7129E0393079ADB13.png" width="590.00" height="392.00" transform="matrix(1.48, 0.00, -0.00, -1.48, 326.0, 630.0)"></image></g></g></g></svg>