<?xml version="1.0" encoding="UTF-8" standalone="no"?><svg xmlns="http://www.w3.org/2000/svg" xmlns:xlink="http://www.w3.org/1999/xlink" clip-rule="evenodd" stroke-miterlimit="4.00" viewBox="0 0 365 31"><desc>SVG generated by Keynote</desc><defs></defs><g transform="matrix(1.00, 0.00, -0.00, -1.00, 0.0, 31.0)"><text xml:space="preserve" font-family="RobotoSlab-Regular" font-size="38.0" fill="#1A1918" transform="matrix(1.00, 0.00, -0.00, -1.00, -1.0, 2.0)">S</text><text xml:space="preserve" font-family="RobotoSlab-Regular" font-size="38.0" fill="#1A1918" transform="matrix(1.00, 0.00, -0.00, -1.00, 22.1, 2.0)">T</text><text xml:space="preserve" font-family="RobotoSlab-Regular" font-size="38.0" fill="#1A1918" transform="matrix(1.00, 0.00, -0.00, -1.00, 46.0, 2.0)">R</text><text xml:space="preserve" font-family="RobotoSlab-Regular" font-size="38.0" fill="#1A1918" transform="matrix(1.00, 0.00, -0.00, -1.00, 71.7, 2.0)">A</text><text xml:space="preserve" font-family="RobotoSlab-Regular" font-size="38.0" fill="#1A1918" transform="matrix(1.00, 0.00, -0.00, -1.00, 99.5, 2.0)">I</text><text xml:space="preserve" font-family="RobotoSlab-Regular" font-size="38.0" fill="#1A1918" transform="matrix(1.00, 0.00, -0.00, -1.00, 111.8, 2.0)">G</text><text xml:space="preserve" font-family="RobotoSlab-Regular" font-size="38.0" fill="#1A1918" transform="matrix(1.00, 0.00, -0.00, -1.00, 137.5, 2.0)">H</text><text xml:space="preserve" font-family="RobotoSlab-Regular" font-size="38.0" fill="#1A1918" transform="matrix(1.00, 0.00, -0.00, -1.00, 166.7, 2.0)">T</text><text xml:space="preserve" font-family="RobotoSlab-Regular" font-size="38.0" fill="#1A1918" transform="matrix(1.00, 0.00, -0.00, -1.00, 190.6, 2.0)"> </text><text xml:space="preserve" font-family="RobotoSlab-Regular" font-size="38.0" fill="#1A1918" transform="matrix(1.00, 0.00, -0.00, -1.00, 200.0, 2.0)">F</text><text xml:space="preserve" font-family="RobotoSlab-Regular" font-size="38.0" fill="#1A1918" transform="matrix(1.00, 0.00, -0.00, -1.00, 222.7, 2.0)">O</text><text xml:space="preserve" font-family="RobotoSlab-Regular" font-size="38.0" fill="#1A1918" transform="matrix(1.00, 0.00, -0.00, -1.00, 249.5, 2.0)">L</text><text xml:space="preserve" font-family="RobotoSlab-Regular" font-size="38.0" fill="#1A1918" transform="matrix(1.00, 0.00, -0.00, -1.00, 271.7, 2.0)">D</text><text xml:space="preserve" font-family="RobotoSlab-Regular" font-size="38.0" fill="#1A1918" transform="matrix(1.00, 0.00, -0.00, -1.00, 298.0, 2.0)">I</text><text xml:space="preserve" font-family="RobotoSlab-Regular" font-size="38.0" fill="#1A1918" transform="matrix(1.00, 0.00, -0.00, -1.00, 310.3, 2.0)">N</text><text xml:space="preserve" font-family="RobotoSlab-Regular" font-size="38.0" fill="#1A1918" transform="matrix(1.00, 0.00, -0.00, -1.00, 339.3, 2.0)">G</text></g></svg>