<?xml version="1.0" encoding="UTF-8" standalone="no"?><svg xmlns="http://www.w3.org/2000/svg" xmlns:xlink="http://www.w3.org/1999/xlink" clip-rule="evenodd" stroke-miterlimit="4.00" viewBox="0 0 687 31"><desc>SVG generated by Keynote</desc><defs></defs><g transform="matrix(1.00, 0.00, -0.00, -1.00, 0.0, 31.0)"><text xml:space="preserve" font-family="RobotoSlab-Regular" font-size="38.0" fill="#1A1918" transform="matrix(1.00, 0.00, -0.00, -1.00, -1.0, 2.0)">S</text><text xml:space="preserve" font-family="RobotoSlab-Regular" font-size="38.0" fill="#1A1918" transform="matrix(1.00, 0.00, -0.00, -1.00, 22.1, 2.0)">H</text><text xml:space="preserve" font-family="RobotoSlab-Regular" font-size="38.0" fill="#1A1918" transform="matrix(1.00, 0.00, -0.00, -1.00, 51.3, 2.0)">E</text><text xml:space="preserve" font-family="RobotoSlab-Regular" font-size="38.0" fill="#1A1918" transform="matrix(1.00, 0.00, -0.00, -1.00, 75.5, 2.0)">L</text><text xml:space="preserve" font-family="RobotoSlab-Regular" font-size="38.0" fill="#1A1918" transform="matrix(1.00, 0.00, -0.00, -1.00, 97.8, 2.0)">L</text><text xml:space="preserve" font-family="RobotoSlab-Regular" font-size="38.0" fill="#1A1918" transform="matrix(1.00, 0.00, -0.00, -1.00, 120.1, 2.0)"> </text><text xml:space="preserve" font-family="RobotoSlab-Regular" font-size="38.0" fill="#1A1918" transform="matrix(1.00, 0.00, -0.00, -1.00, 129.5, 2.0)">E</text><text xml:space="preserve" font-family="RobotoSlab-Regular" font-size="38.0" fill="#1A1918" transform="matrix(1.00, 0.00, -0.00, -1.00, 153.8, 2.0)">L</text><text xml:space="preserve" font-family="RobotoSlab-Regular" font-size="38.0" fill="#1A1918" transform="matrix(1.00, 0.00, -0.00, -1.00, 176.1, 2.0)">E</text><text xml:space="preserve" font-family="RobotoSlab-Regular" font-size="38.0" fill="#1A1918" transform="matrix(1.00, 0.00, -0.00, -1.00, 200.3, 2.0)">M</text><text xml:space="preserve" font-family="RobotoSlab-Regular" font-size="38.0" fill="#1A1918" transform="matrix(1.00, 0.00, -0.00, -1.00, 235.6, 2.0)">E</text><text xml:space="preserve" font-family="RobotoSlab-Regular" font-size="38.0" fill="#1A1918" transform="matrix(1.00, 0.00, -0.00, -1.00, 259.9, 2.0)">N</text><text xml:space="preserve" font-family="RobotoSlab-Regular" font-size="38.0" fill="#1A1918" transform="matrix(1.00, 0.00, -0.00, -1.00, 288.8, 2.0)">T</text><text xml:space="preserve" font-family="RobotoSlab-Regular" font-size="38.0" fill="#1A1918" transform="matrix(1.00, 0.00, -0.00, -1.00, 312.3, 2.0)">S</text><text xml:space="preserve" font-family="RobotoSlab-Regular" font-size="38.0" fill="#1A1918" transform="matrix(1.00, 0.00, -0.00, -1.00, 335.5, 2.0)"> </text><text xml:space="preserve" font-family="RobotoSlab-Regular" font-size="38.0" fill="#1A1918" transform="matrix(1.00, 0.00, -0.00, -1.00, 344.9, 2.0)">V</text><text xml:space="preserve" font-family="RobotoSlab-Regular" font-size="38.0" fill="#1A1918" transform="matrix(1.00, 0.00, -0.00, -1.00, 372.2, 2.0)">S</text><text xml:space="preserve" font-family="RobotoSlab-Regular" font-size="38.0" fill="#1A1918" transform="matrix(1.00, 0.00, -0.00, -1.00, 395.3, 2.0)">.</text><text xml:space="preserve" font-family="RobotoSlab-Regular" font-size="38.0" fill="#1A1918" transform="matrix(1.00, 0.00, -0.00, -1.00, 404.4, 2.0)"> </text><text xml:space="preserve" font-family="RobotoSlab-Regular" font-size="38.0" fill="#1A1918" transform="matrix(1.00, 0.00, -0.00, -1.00, 413.9, 2.0)">G</text><text xml:space="preserve" font-family="RobotoSlab-Regular" font-size="38.0" fill="#1A1918" transform="matrix(1.00, 0.00, -0.00, -1.00, 439.6, 2.0)">R</text><text xml:space="preserve" font-family="RobotoSlab-Regular" font-size="38.0" fill="#1A1918" transform="matrix(1.00, 0.00, -0.00, -1.00, 465.3, 2.0)">I</text><text xml:space="preserve" font-family="RobotoSlab-Regular" font-size="38.0" fill="#1A1918" transform="matrix(1.00, 0.00, -0.00, -1.00, 477.6, 2.0)">D</text><text xml:space="preserve" font-family="RobotoSlab-Regular" font-size="38.0" fill="#1A1918" transform="matrix(1.00, 0.00, -0.00, -1.00, 503.9, 2.0)"> </text><text xml:space="preserve" font-family="RobotoSlab-Regular" font-size="38.0" fill="#1A1918" transform="matrix(1.00, 0.00, -0.00, -1.00, 513.4, 2.0)">O</text><text xml:space="preserve" font-family="RobotoSlab-Regular" font-size="38.0" fill="#1A1918" transform="matrix(1.00, 0.00, -0.00, -1.00, 540.2, 2.0)">F</text><text xml:space="preserve" font-family="RobotoSlab-Regular" font-size="38.0" fill="#1A1918" transform="matrix(1.00, 0.00, -0.00, -1.00, 563.8, 2.0)"> </text><text xml:space="preserve" font-family="RobotoSlab-Regular" font-size="38.0" fill="#1A1918" transform="matrix(1.00, 0.00, -0.00, -1.00, 573.2, 2.0)">B</text><text xml:space="preserve" font-family="RobotoSlab-Regular" font-size="38.0" fill="#1A1918" transform="matrix(1.00, 0.00, -0.00, -1.00, 598.2, 2.0)">E</text><text xml:space="preserve" font-family="RobotoSlab-Regular" font-size="38.0" fill="#1A1918" transform="matrix(1.00, 0.00, -0.00, -1.00, 622.4, 2.0)">A</text><text xml:space="preserve" font-family="RobotoSlab-Regular" font-size="38.0" fill="#1A1918" transform="matrix(1.00, 0.00, -0.00, -1.00, 650.3, 2.0)">M</text></g></svg>