<?xml version="1.0" encoding="UTF-8" standalone="no"?><svg xmlns="http://www.w3.org/2000/svg" xmlns:xlink="http://www.w3.org/1999/xlink" clip-rule="evenodd" stroke-miterlimit="4.00" viewBox="0 0 1024 768"><desc>SVG generated by Keynote</desc><defs></defs><g transform="matrix(1.00, 0.00, -0.00, -1.00, 0.0, 768.0)"><path d="M 0.0 768.0 L 1024.0 768.0 L 1024.0 0.0 L 0.0 0.0 Z M 0.0 768.0 " fill="#FEFFFF"></path><text xml:space="preserve" font-family="RobotoSlab-Regular" font-size="12.0" fill="#4C4D4C" transform="matrix(1.00, 0.00, -0.00, -1.00, 357.0, 19.0)">S</text><text xml:space="preserve" font-family="RobotoSlab-Regular" font-size="12.0" fill="#4C4D4C" transform="matrix(1.00, 0.00, -0.00, -1.00, 364.3, 19.0)">h</text><text xml:space="preserve" font-family="RobotoSlab-Regular" font-size="12.0" fill="#4C4D4C" transform="matrix(1.00, 0.00, -0.00, -1.00, 372.0, 19.0)">a</text><text xml:space="preserve" font-family="RobotoSlab-Regular" font-size="12.0" fill="#4C4D4C" transform="matrix(1.00, 0.00, -0.00, -1.00, 378.7, 19.0)">d</text><text xml:space="preserve" font-family="RobotoSlab-Regular" font-size="12.0" fill="#4C4D4C" transform="matrix(1.00, 0.00, -0.00, -1.00, 385.9, 19.0)">i</text><text xml:space="preserve" font-family="RobotoSlab-Regular" font-size="12.0" fill="#4C4D4C" transform="matrix(1.00, 0.00, -0.00, -1.00, 389.8, 19.0)">n</text><text xml:space="preserve" font-family="RobotoSlab-Regular" font-size="12.0" fill="#4C4D4C" transform="matrix(1.00, 0.00, -0.00, -1.00, 397.5, 19.0)">g</text><text xml:space="preserve" font-family="RobotoSlab-Regular" font-size="12.0" fill="#4C4D4C" transform="matrix(1.00, 0.00, -0.00, -1.00, 404.2, 19.0)"> </text><text xml:space="preserve" font-family="RobotoSlab-Regular" font-size="12.0" fill="#4C4D4C" transform="matrix(1.00, 0.00, -0.00, -1.00, 407.2, 19.0)">d</text><text xml:space="preserve" font-family="RobotoSlab-Regular" font-size="12.0" fill="#4C4D4C" transform="matrix(1.00, 0.00, -0.00, -1.00, 414.4, 19.0)">e</text><text xml:space="preserve" font-family="RobotoSlab-Regular" font-size="12.0" fill="#4C4D4C" transform="matrix(1.00, 0.00, -0.00, -1.00, 420.8, 19.0)">v</text><text xml:space="preserve" font-family="RobotoSlab-Regular" font-size="12.0" fill="#4C4D4C" transform="matrix(1.00, 0.00, -0.00, -1.00, 427.5, 19.0)">i</text><text xml:space="preserve" font-family="RobotoSlab-Regular" font-size="12.0" fill="#4C4D4C" transform="matrix(1.00, 0.00, -0.00, -1.00, 431.4, 19.0)">c</text><text xml:space="preserve" font-family="RobotoSlab-Regular" font-size="12.0" fill="#4C4D4C" transform="matrix(1.00, 0.00, -0.00, -1.00, 437.9, 19.0)">e</text><text xml:space="preserve" font-family="RobotoSlab-Regular" font-size="12.0" fill="#4C4D4C" transform="matrix(1.00, 0.00, -0.00, -1.00, 444.3, 19.0)"> </text><text xml:space="preserve" font-family="RobotoSlab-Regular" font-size="12.0" fill="#4C4D4C" transform="matrix(1.00, 0.00, -0.00, -1.00, 447.3, 19.0)">-</text><text xml:space="preserve" font-family="RobotoSlab-Regular" font-size="12.0" fill="#4C4D4C" transform="matrix(1.00, 0.00, -0.00, -1.00, 452.0, 19.0)"> </text><text xml:space="preserve" font-family="RobotoSlab-Regular" font-size="12.0" fill="#4C4D4C" transform="matrix(1.00, 0.00, -0.00, -1.00, 455.0, 19.0)">L</text><text xml:space="preserve" font-family="RobotoSlab-Regular" font-size="12.0" fill="#4C4D4C" transform="matrix(1.00, 0.00, -0.00, -1.00, 462.0, 19.0)">.</text><text xml:space="preserve" font-family="RobotoSlab-Regular" font-size="12.0" fill="#4C4D4C" transform="matrix(1.00, 0.00, -0.00, -1.00, 464.9, 19.0)"> </text><text xml:space="preserve" font-family="RobotoSlab-Regular" font-size="12.0" fill="#4C4D4C" transform="matrix(1.00, 0.00, -0.00, -1.00, 467.9, 19.0)">d</text><text xml:space="preserve" font-family="RobotoSlab-Regular" font-size="12.0" fill="#4C4D4C" transform="matrix(1.00, 0.00, -0.00, -1.00, 475.1, 19.0)">u</text><text xml:space="preserve" font-family="RobotoSlab-Regular" font-size="12.0" fill="#4C4D4C" transform="matrix(1.00, 0.00, -0.00, -1.00, 482.4, 19.0)"> </text><text xml:space="preserve" font-family="RobotoSlab-Regular" font-size="12.0" fill="#4C4D4C" transform="matrix(1.00, 0.00, -0.00, -1.00, 485.3, 19.0)">P</text><text xml:space="preserve" font-family="RobotoSlab-Regular" font-size="12.0" fill="#4C4D4C" transform="matrix(1.00, 0.00, -0.00, -1.00, 492.9, 19.0)">e</text><text xml:space="preserve" font-family="RobotoSlab-Regular" font-size="12.0" fill="#4C4D4C" transform="matrix(1.00, 0.00, -0.00, -1.00, 499.3, 19.0)">l</text><text xml:space="preserve" font-family="RobotoSlab-Regular" font-size="12.0" fill="#4C4D4C" transform="matrix(1.00, 0.00, -0.00, -1.00, 503.0, 19.0)">o</text><text xml:space="preserve" font-family="RobotoSlab-Regular" font-size="12.0" fill="#4C4D4C" transform="matrix(1.00, 0.00, -0.00, -1.00, 509.7, 19.0)">u</text><text xml:space="preserve" font-family="RobotoSlab-Regular" font-size="12.0" fill="#4C4D4C" transform="matrix(1.00, 0.00, -0.00, -1.00, 517.0, 19.0)">x</text><text xml:space="preserve" font-family="RobotoSlab-Regular" font-size="12.0" fill="#4C4D4C" transform="matrix(1.00, 0.00, -0.00, -1.00, 524.0, 19.0)"> </text><text xml:space="preserve" font-family="RobotoSlab-Regular" font-size="12.0" fill="#4C4D4C" transform="matrix(1.00, 0.00, -0.00, -1.00, 527.0, 19.0)">@</text><text xml:space="preserve" font-family="RobotoSlab-Regular" font-size="12.0" fill="#4C4D4C" transform="matrix(1.00, 0.00, -0.00, -1.00, 537.7, 19.0)">P</text><text xml:space="preserve" font-family="RobotoSlab-Regular" font-size="12.0" fill="#4C4D4C" transform="matrix(1.00, 0.00, -0.00, -1.00, 545.3, 19.0)">r</text><text xml:space="preserve" font-family="RobotoSlab-Regular" font-size="12.0" fill="#4C4D4C" transform="matrix(1.00, 0.00, -0.00, -1.00, 550.2, 19.0)">i</text><text xml:space="preserve" font-family="RobotoSlab-Regular" font-size="12.0" fill="#4C4D4C" transform="matrix(1.00, 0.00, -0.00, -1.00, 554.2, 19.0)">n</text><text xml:space="preserve" font-family="RobotoSlab-Regular" font-size="12.0" fill="#4C4D4C" transform="matrix(1.00, 0.00, -0.00, -1.00, 561.8, 19.0)">c</text><text xml:space="preserve" font-family="RobotoSlab-Regular" font-size="12.0" fill="#4C4D4C" transform="matrix(1.00, 0.00, -0.00, -1.00, 568.3, 19.0)">e</text><text xml:space="preserve" font-family="RobotoSlab-Regular" font-size="12.0" fill="#4C4D4C" transform="matrix(1.00, 0.00, -0.00, -1.00, 574.7, 19.0)">t</text><text xml:space="preserve" font-family="RobotoSlab-Regular" font-size="12.0" fill="#4C4D4C" transform="matrix(1.00, 0.00, -0.00, -1.00, 579.0, 19.0)">o</text><text xml:space="preserve" font-family="RobotoSlab-Regular" font-size="12.0" fill="#4C4D4C" transform="matrix(1.00, 0.00, -0.00, -1.00, 585.8, 19.0)">n</text><text xml:space="preserve" font-family="RobotoSlab-Regular" font-size="12.0" fill="#4C4D4C" transform="matrix(1.00, 0.00, -0.00, -1.00, 593.5, 19.0)"> </text><text xml:space="preserve" font-family="RobotoSlab-Regular" font-size="12.0" fill="#4C4D4C" transform="matrix(1.00, 0.00, -0.00, -1.00, 596.5, 19.0)">-</text><text xml:space="preserve" font-family="RobotoSlab-Regular" font-size="12.0" fill="#4C4D4C" transform="matrix(1.00, 0.00, -0.00, -1.00, 601.1, 19.0)"> </text><text xml:space="preserve" font-family="RobotoSlab-Regular" font-size="12.0" fill="#4C4D4C" transform="matrix(1.00, 0.00, -0.00, -1.00, 604.1, 19.0)">1</text><text xml:space="preserve" font-family="RobotoSlab-Regular" font-size="12.0" fill="#4C4D4C" transform="matrix(1.00, 0.00, -0.00, -1.00, 609.1, 19.0)">0</text><text xml:space="preserve" font-family="RobotoSlab-Regular" font-size="12.0" fill="#4C4D4C" transform="matrix(1.00, 0.00, -0.00, -1.00, 615.9, 19.0)"> </text><text xml:space="preserve" font-family="RobotoSlab-Regular" font-size="12.0" fill="#4C4D4C" transform="matrix(1.00, 0.00, -0.00, -1.00, 618.9, 19.0)">o</text><text xml:space="preserve" font-family="RobotoSlab-Regular" font-size="12.0" fill="#4C4D4C" transform="matrix(1.00, 0.00, -0.00, -1.00, 625.6, 19.0)">c</text><text xml:space="preserve" font-family="RobotoSlab-Regular" font-size="12.0" fill="#4C4D4C" transform="matrix(1.00, 0.00, -0.00, -1.00, 632.1, 19.0)">t</text><text xml:space="preserve" font-family="RobotoSlab-Regular" font-size="12.0" fill="#4C4D4C" transform="matrix(1.00, 0.00, -0.00, -1.00, 636.5, 19.0)">.</text><text xml:space="preserve" font-family="RobotoSlab-Regular" font-size="12.0" fill="#4C4D4C" transform="matrix(1.00, 0.00, -0.00, -1.00, 639.4, 19.0)"> </text><text xml:space="preserve" font-family="RobotoSlab-Regular" font-size="12.0" fill="#4C4D4C" transform="matrix(1.00, 0.00, -0.00, -1.00, 642.3, 19.0)">2</text><text xml:space="preserve" font-family="RobotoSlab-Regular" font-size="12.0" fill="#4C4D4C" transform="matrix(1.00, 0.00, -0.00, -1.00, 649.0, 19.0)">0</text><text xml:space="preserve" font-family="RobotoSlab-Regular" font-size="12.0" fill="#4C4D4C" transform="matrix(1.00, 0.00, -0.00, -1.00, 655.8, 19.0)">1</text><text xml:space="preserve" font-family="RobotoSlab-Regular" font-size="12.0" fill="#4C4D4C" transform="matrix(1.00, 0.00, -0.00, -1.00, 660.8, 19.0)">6</text><text xml:space="preserve" font-family="RobotoSlab-Bold" font-weight="bold" font-size="18.0" fill="#0099C8" transform="matrix(1.00, 0.00, -0.00, -1.00, 16.0, 17.0)">T</text><text xml:space="preserve" font-family="RobotoSlab-Bold" font-weight="bold" font-size="18.0" fill="#0099C8" transform="matrix(1.00, 0.00, -0.00, -1.00, 28.1, 17.0)">H</text><text xml:space="preserve" font-family="RobotoSlab-Bold" font-weight="bold" font-size="18.0" fill="#0099C8" transform="matrix(1.00, 0.00, -0.00, -1.00, 42.2, 17.0)">I</text><text xml:space="preserve" font-family="RobotoSlab-Bold" font-weight="bold" font-size="18.0" fill="#0099C8" transform="matrix(1.00, 0.00, -0.00, -1.00, 48.4, 17.0)">N</text><text xml:space="preserve" font-family="RobotoSlab-Bold" font-weight="bold" font-size="18.0" fill="#0099C8" transform="matrix(1.00, 0.00, -0.00, -1.00, 62.4, 17.0)">k</text><text xml:space="preserve" font-family="RobotoSlab-Bold" font-weight="bold" font-size="18.0" fill="#0099C8" transform="matrix(1.00, 0.00, -0.00, -1.00, 73.3, 17.0)">S</text><text xml:space="preserve" font-family="RobotoSlab-Bold" font-weight="bold" font-size="18.0" fill="#0099C8" transform="matrix(1.00, 0.00, -0.00, -1.00, 84.2, 17.0)">H</text><text xml:space="preserve" font-family="RobotoSlab-Bold" font-weight="bold" font-size="18.0" fill="#0099C8" transform="matrix(1.00, 0.00, -0.00, -1.00, 98.3, 17.0)">E</text><text xml:space="preserve" font-family="RobotoSlab-Bold" font-weight="bold" font-size="18.0" fill="#0099C8" transform="matrix(1.00, 0.00, -0.00, -1.00, 109.8, 17.0)">L</text><text xml:space="preserve" font-family="RobotoSlab-Bold" font-weight="bold" font-size="18.0" fill="#0099C8" transform="matrix(1.00, 0.00, -0.00, -1.00, 120.3, 17.0)">L</text><text xml:space="preserve" font-family="RobotoSlab-Bold" font-weight="bold" font-size="18.0" fill="#0099C8" transform="matrix(1.00, 0.00, -0.00, -1.00, 130.9, 17.0)">.</text><text xml:space="preserve" font-family="RobotoSlab-Bold" font-weight="bold" font-size="18.0" fill="#0099C8" transform="matrix(1.00, 0.00, -0.00, -1.00, 135.4, 17.0)">f</text><text xml:space="preserve" font-family="RobotoSlab-Bold" font-weight="bold" font-size="18.0" fill="#0099C8" transform="matrix(1.00, 0.00, -0.00, -1.00, 142.1, 17.0)">r</text><path d="M 0.0 0.0 L 1000.0 0.0 " fill="none" stroke="#0099C8" stroke-width="1.00" transform="matrix(1.00, 0.00, 0.00, -1.00, 12.0, 48.0)"></path><text xml:space="preserve" font-family="RobotoSlab-Bold" font-weight="bold" font-size="20.0" fill="#0099C8" transform="matrix(1.00, 0.00, -0.00, -1.00, 986.3, 16.4)">3</text><text xml:space="preserve" font-family="RobotoSlab-Bold" font-weight="bold" font-size="20.0" fill="#0099C8" transform="matrix(1.00, 0.00, -0.00, -1.00, 997.2, 16.4)">7</text><text xml:space="preserve" font-family="RobotoSlab-Regular" font-size="42.0" fill="#0099C8" transform="matrix(1.00, 0.00, -0.00, -1.00, 297.0, 368.0)">a</text><text xml:space="preserve" font-family="RobotoSlab-Regular" font-size="42.0" fill="#0099C8" transform="matrix(1.00, 0.00, -0.00, -1.00, 320.1, 368.0)">c</text><text xml:space="preserve" font-family="RobotoSlab-Regular" font-size="42.0" fill="#0099C8" transform="matrix(1.00, 0.00, -0.00, -1.00, 342.8, 368.0)">c</text><text xml:space="preserve" font-family="RobotoSlab-Regular" font-size="42.0" fill="#0099C8" transform="matrix(1.00, 0.00, -0.00, -1.00, 365.4, 368.0)">u</text><text xml:space="preserve" font-family="RobotoSlab-Regular" font-size="42.0" fill="#0099C8" transform="matrix(1.00, 0.00, -0.00, -1.00, 390.9, 368.0)">r</text><text xml:space="preserve" font-family="RobotoSlab-Regular" font-size="42.0" fill="#0099C8" transform="matrix(1.00, 0.00, -0.00, -1.00, 408.3, 368.0)">a</text><text xml:space="preserve" font-family="RobotoSlab-Regular" font-size="42.0" fill="#0099C8" transform="matrix(1.00, 0.00, -0.00, -1.00, 431.4, 368.0)">t</text><text xml:space="preserve" font-family="RobotoSlab-Regular" font-size="42.0" fill="#0099C8" transform="matrix(1.00, 0.00, -0.00, -1.00, 446.8, 368.0)">e</text><text xml:space="preserve" font-family="RobotoSlab-Regular" font-size="42.0" fill="#0099C8" transform="matrix(1.00, 0.00, -0.00, -1.00, 469.4, 368.0)"> </text><text xml:space="preserve" font-family="RobotoSlab-Regular" font-size="42.0" fill="#0099C8" transform="matrix(1.00, 0.00, -0.00, -1.00, 479.8, 368.0)">s</text><text xml:space="preserve" font-family="RobotoSlab-Regular" font-size="42.0" fill="#0099C8" transform="matrix(1.00, 0.00, -0.00, -1.00, 501.2, 368.0)">i</text><text xml:space="preserve" font-family="RobotoSlab-Regular" font-size="42.0" fill="#0099C8" transform="matrix(1.00, 0.00, -0.00, -1.00, 515.0, 368.0)">m</text><text xml:space="preserve" font-family="RobotoSlab-Regular" font-size="42.0" fill="#0099C8" transform="matrix(1.00, 0.00, -0.00, -1.00, 554.7, 368.0)">u</text><text xml:space="preserve" font-family="RobotoSlab-Regular" font-size="42.0" fill="#0099C8" transform="matrix(1.00, 0.00, -0.00, -1.00, 580.2, 368.0)">l</text><text xml:space="preserve" font-family="RobotoSlab-Regular" font-size="42.0" fill="#0099C8" transform="matrix(1.00, 0.00, -0.00, -1.00, 593.4, 368.0)">a</text><text xml:space="preserve" font-family="RobotoSlab-Regular" font-size="42.0" fill="#0099C8" transform="matrix(1.00, 0.00, -0.00, -1.00, 616.5, 368.0)">t</text><text xml:space="preserve" font-family="RobotoSlab-Regular" font-size="42.0" fill="#0099C8" transform="matrix(1.00, 0.00, -0.00, -1.00, 631.9, 368.0)">i</text><text xml:space="preserve" font-family="RobotoSlab-Regular" font-size="42.0" fill="#0099C8" transform="matrix(1.00, 0.00, -0.00, -1.00, 645.7, 368.0)">o</text><text xml:space="preserve" font-family="RobotoSlab-Regular" font-size="42.0" fill="#0099C8" transform="matrix(1.00, 0.00, -0.00, -1.00, 669.3, 368.0)">n</text><text xml:space="preserve" font-family="RobotoSlab-Regular" font-size="42.0" fill="#0099C8" transform="matrix(1.00, 0.00, -0.00, -1.00, 696.3, 368.0)"> </text><text xml:space="preserve" font-family="RobotoSlab-Regular" font-size="42.0" fill="#0099C8" transform="matrix(1.00, 0.00, -0.00, -1.00, 706.7, 368.0)">?</text><text xml:space="preserve" font-family="RobotoSlab-Regular" font-size="42.0" fill="#0099C8" transform="matrix(1.00, 0.00, -0.00, -1.00, 726.3, 368.0)"> </text><text xml:space="preserve" font-family="RobotoSlab-Regular" font-size="42.0" fill="#0099C8" transform="matrix(1.00, 0.00, -0.00, -1.00, 403.0, 313.0)">g</text><text xml:space="preserve" font-family="RobotoSlab-Regular" font-size="42.0" fill="#0099C8" transform="matrix(1.00, 0.00, -0.00, -1.00, 426.8, 313.0)">e</text><text xml:space="preserve" font-family="RobotoSlab-Regular" font-size="42.0" fill="#0099C8" transform="matrix(1.00, 0.00, -0.00, -1.00, 449.3, 313.0)">o</text><text xml:space="preserve" font-family="RobotoSlab-Regular" font-size="42.0" fill="#0099C8" transform="matrix(1.00, 0.00, -0.00, -1.00, 472.9, 313.0)">m</text><text xml:space="preserve" font-family="RobotoSlab-Regular" font-size="42.0" fill="#0099C8" transform="matrix(1.00, 0.00, -0.00, -1.00, 512.4, 313.0)">e</text><text xml:space="preserve" font-family="RobotoSlab-Regular" font-size="42.0" fill="#0099C8" transform="matrix(1.00, 0.00, -0.00, -1.00, 534.9, 313.0)">t</text><text xml:space="preserve" font-family="RobotoSlab-Regular" font-size="42.0" fill="#0099C8" transform="matrix(1.00, 0.00, -0.00, -1.00, 550.3, 313.0)">r</text><text xml:space="preserve" font-family="RobotoSlab-Regular" font-size="42.0" fill="#0099C8" transform="matrix(1.00, 0.00, -0.00, -1.00, 568.0, 313.0)">y</text><text xml:space="preserve" font-family="RobotoSlab-Regular" font-size="42.0" fill="#0099C8" transform="matrix(1.00, 0.00, -0.00, -1.00, 591.9, 313.0)"> </text><text xml:space="preserve" font-family="RobotoSlab-Regular" font-size="42.0" fill="#0099C8" transform="matrix(1.00, 0.00, -0.00, -1.00, 602.3, 313.0)">?</text><text xml:space="preserve" font-family="RobotoSlab-Regular" font-size="42.0" fill="#0099C8" transform="matrix(1.00, 0.00, -0.00, -1.00, 621.9, 313.0)"> </text><text xml:space="preserve" font-family="RobotoSlab-Regular" font-size="42.0" fill="#0099C8" transform="matrix(1.00, 0.00, -0.00, -1.00, 437.0, 258.0)">s</text><text xml:space="preserve" font-family="RobotoSlab-Regular" font-size="42.0" fill="#0099C8" transform="matrix(1.00, 0.00, -0.00, -1.00, 458.4, 258.0)">t</text><text xml:space="preserve" font-family="RobotoSlab-Regular" font-size="42.0" fill="#0099C8" transform="matrix(1.00, 0.00, -0.00, -1.00, 473.8, 258.0)">r</text><text xml:space="preserve" font-family="RobotoSlab-Regular" font-size="42.0" fill="#0099C8" transform="matrix(1.00, 0.00, -0.00, -1.00, 490.7, 258.0)">e</text><text xml:space="preserve" font-family="RobotoSlab-Regular" font-size="42.0" fill="#0099C8" transform="matrix(1.00, 0.00, -0.00, -1.00, 513.3, 258.0)">s</text><text xml:space="preserve" font-family="RobotoSlab-Regular" font-size="42.0" fill="#0099C8" transform="matrix(1.00, 0.00, -0.00, -1.00, 534.7, 258.0)">s</text><text xml:space="preserve" font-family="RobotoSlab-Regular" font-size="42.0" fill="#0099C8" transform="matrix(1.00, 0.00, -0.00, -1.00, 556.1, 258.0)"> </text><text xml:space="preserve" font-family="RobotoSlab-Regular" font-size="42.0" fill="#0099C8" transform="matrix(1.00, 0.00, -0.00, -1.00, 566.5, 258.0)">?</text></g></svg>